<svg width="10" height="75" viewBox="0 0 10 75" fill="none" xmlns="http://www.w3.org/2000/svg">
<circle cx="5.3123" cy="44.9377" r="1.3123" transform="rotate(-90 5.3123 44.9377)" fill="#D9D9D9"/>
<circle cx="5.3123" cy="41.4382" r="1.3123" transform="rotate(-90 5.3123 41.4382)" fill="#D9D9D9"/>
<circle cx="5.3123" cy="37.9387" r="1.3123" transform="rotate(-90 5.3123 37.9387)" fill="#D9D9D9"/>
<circle cx="5.3123" cy="34.4394" r="1.3123" transform="rotate(-90 5.3123 34.4394)" fill="#D9D9D9"/>
<circle cx="5.3123" cy="30.9399" r="1.3123" transform="rotate(-90 5.3123 30.9399)" fill="#D9D9D9"/>
<circle cx="5.3123" cy="27.4404" r="1.3123" transform="rotate(-90 5.3123 27.4404)" fill="#D9D9D9"/>
<circle cx="5.3123" cy="62.4377" r="1.3123" transform="rotate(-90 5.3123 62.4377)" fill="#D9D9D9"/>
<circle cx="5.3123" cy="58.9382" r="1.3123" transform="rotate(-90 5.3123 58.9382)" fill="#D9D9D9"/>
<circle cx="5.3123" cy="55.4387" r="1.3123" transform="rotate(-90 5.3123 55.4387)" fill="#D9D9D9"/>
<circle cx="5.3123" cy="51.9394" r="1.3123" transform="rotate(-90 5.3123 51.9394)" fill="#D9D9D9"/>
<circle cx="5.3123" cy="48.4399" r="1.3123" transform="rotate(-90 5.3123 48.4399)" fill="#D9D9D9"/>
<circle cx="5.3123" cy="44.9404" r="1.3123" transform="rotate(-90 5.3123 44.9404)" fill="#D9D9D9"/>
<circle cx="5.3123" cy="72.8098" r="1.3123" transform="rotate(-90 5.3123 72.8098)" fill="#D9D9D9"/>
<circle cx="5.3123" cy="69.3103" r="1.3123" transform="rotate(-90 5.3123 69.3103)" fill="#D9D9D9"/>
<circle cx="5.3123" cy="65.8107" r="1.3123" transform="rotate(-90 5.3123 65.8107)" fill="#D9D9D9"/>
<circle cx="5.3123" cy="62.3115" r="1.3123" transform="rotate(-90 5.3123 62.3115)" fill="#D9D9D9"/>
<circle cx="5.3123" cy="58.812" r="1.3123" transform="rotate(-90 5.3123 58.812)" fill="#D9D9D9"/>
<circle cx="5.3123" cy="55.3125" r="1.3123" transform="rotate(-90 5.3123 55.3125)" fill="#D9D9D9"/>
<circle cx="5.3123" cy="23.8098" r="1.3123" transform="rotate(-90 5.3123 23.8098)" fill="#D9D9D9"/>
<circle cx="5.3123" cy="20.3103" r="1.3123" transform="rotate(-90 5.3123 20.3103)" fill="#D9D9D9"/>
<circle cx="5.3123" cy="16.8107" r="1.3123" transform="rotate(-90 5.3123 16.8107)" fill="#D9D9D9"/>
<circle cx="5.3123" cy="13.3115" r="1.3123" transform="rotate(-90 5.3123 13.3115)" fill="#D9D9D9"/>
<circle cx="5.3123" cy="9.81197" r="1.3123" transform="rotate(-90 5.3123 9.81197)" fill="#D9D9D9"/>
<circle cx="5.3123" cy="6.31245" r="1.3123" transform="rotate(-90 5.3123 6.31245)" fill="#D9D9D9"/>
<circle cx="5" cy="5" r="5" transform="rotate(-90 5 5)" fill="#BEBEBE"/>
</svg>
