<svg width="35" height="22" viewBox="0 0 35 22" fill="none" xmlns="http://www.w3.org/2000/svg">
<path d="M34.5597 17.758C34.5597 20.586 33.1318 22 30.2623 22H4.29749C1.42804 22 -7.62939e-06 20.586 -7.62939e-06 17.758V4.24197C-7.62939e-06 1.41399 1.42804 0 4.29749 0H26.9075C29.278 0 30.6504 1.3724 31.3574 3.50724L34.0884 11.7971C34.4211 12.7675 34.5597 13.5854 34.5597 14.6805V17.758ZM21.0159 10.7574V6.48773C21.0159 5.65596 20.5168 5.17077 19.6989 5.17077H6.86213C6.03046 5.17077 5.54526 5.65596 5.54526 6.48773V10.7574C5.54526 11.5476 6.03046 12.0328 6.86213 12.0328H19.6989C20.5168 12.0328 21.0159 11.5476 21.0159 10.7574ZM29.5969 12.0328C30.3732 12.0328 30.7891 11.4089 30.4702 10.4247L29.0701 6.16887C28.876 5.55892 28.571 5.17077 27.5868 5.17077H26.0064C25.1886 5.17077 24.6895 5.65596 24.6895 6.48773V10.7574C24.6895 11.5476 25.1886 12.0328 26.0064 12.0328H29.5969Z" fill="#678ABA"/>
</svg>
