<svg width="35" height="22" viewBox="0 0 35 22" fill="none" xmlns="http://www.w3.org/2000/svg">
<g clip-path="url(#clip0_181_3631)">
<path d="M0 17.758C0 20.586 1.42785 22 4.29741 22H30.2622C33.1316 22 34.5597 20.586 34.5597 17.758V4.24197C34.5597 1.41399 33.1316 0 30.2622 0H7.65217C5.28166 0 3.90926 1.3724 3.20227 3.50724L0.471331 11.7971C0.138626 12.7675 0 13.5854 0 14.6805V17.758ZM13.5438 10.7574V6.48773C13.5438 5.65596 14.0429 5.17077 14.8608 5.17077H27.6976C28.5292 5.17077 29.0144 5.65596 29.0144 6.48773V10.7574C29.0144 11.5476 28.5292 12.0328 27.6976 12.0328H14.8608C14.0429 12.0328 13.5438 11.5476 13.5438 10.7574ZM4.96283 12.0328C4.18652 12.0328 3.77062 11.4089 4.08948 10.4247L5.48959 6.16887C5.68367 5.55893 5.98867 5.17077 6.97289 5.17077H8.55326C9.37114 5.17077 9.87019 5.65596 9.87019 6.48773V10.7574C9.87019 11.5476 9.37114 12.0328 8.55326 12.0328H4.96283Z" fill="#678ABA"/>
</g>
<defs>
<clipPath id="clip0_181_3631">
<rect width="34.5597" height="22" fill="white" transform="matrix(-1 0 0 1 34.5597 0)"/>
</clipPath>
</defs>
</svg>
